<?xml version="1.0" encoding="UTF-8" standalone="no"?>
<!-- Created with Inkscape (http://www.inkscape.org/) -->

<svg
   xmlns:dc="http://purl.org/dc/elements/1.1/"
   xmlns:cc="http://creativecommons.org/ns#"
   xmlns:rdf="http://www.w3.org/1999/02/22-rdf-syntax-ns#"
   xmlns:svg="http://www.w3.org/2000/svg"
   xmlns="http://www.w3.org/2000/svg"
   xmlns:sodipodi="http://sodipodi.sourceforge.net/DTD/sodipodi-0.dtd"
   xmlns:inkscape="http://www.inkscape.org/namespaces/inkscape"
   width="53.757355mm"
   height="62.417271mm"
   viewBox="0 0 190.47882 221.16356"
   id="svg3488"
   version="1.1"
   inkscape:version="0.91 r13725"
   sodipodi:docname="raincatcher-logo.svg">
  <defs
     id="defs3490" />
  <sodipodi:namedview
     id="base"
     pagecolor="#ffffff"
     bordercolor="#666666"
     borderopacity="1.0"
     inkscape:pageopacity="0.0"
     inkscape:pageshadow="2"
     inkscape:zoom="0.35"
     inkscape:cx="-102.6177"
     inkscape:cy="-306.56108"
     inkscape:document-units="px"
     inkscape:current-layer="layer1"
     showgrid="false"
     inkscape:window-width="1916"
     inkscape:window-height="1040"
     inkscape:window-x="1366"
     inkscape:window-y="18"
     inkscape:window-maximized="0"
     fit-margin-top="0"
     fit-margin-left="0"
     fit-margin-right="0"
     fit-margin-bottom="0" />
  <metadata
     id="metadata3493">
    <rdf:RDF>
      <cc:Work
         rdf:about="">
        <dc:format>image/svg+xml</dc:format>
        <dc:type
           rdf:resource="http://purl.org/dc/dcmitype/StillImage" />
        <dc:title></dc:title>
      </cc:Work>
    </rdf:RDF>
  </metadata>
  <g
     inkscape:label="Layer 1"
     inkscape:groupmode="layer"
     id="layer1"
     transform="translate(-1.9034141,-4.6375686)">
    <g
       id="g7"
       transform="matrix(1.94515,0,0,1.94515,1.9520429,4.6375686)">
      <path
         style="fill:#005f6b"
         inkscape:connector-curvature="0"
         class="st0"
         d="m 0.1,0 c 2.7,0 24.5,0.1 33.1,0.1 18.3,0 33.1,14.6 33,32.9 0,9.1 -0.1,33 -0.1,33 L 28.4,65.9 C 12.3,63.6 0,49.9 0,33.1 0,25 -0.1,0 0.1,0 Z"
         id="path9" />
      <path
         style="fill:#008c9e"
         inkscape:connector-curvature="0"
         class="st1"
         d="m 67.1,71.4 c -1.8,0 -15.7,0 -21.2,0.1 -11.7,0 -21.2,9.4 -21.2,21.1 0,5.8 0.1,21.1 0.1,21.1 L 49,113.6 c 10.3,-1.4 18.2,-10.2 18.2,-21 0,-5.2 0.1,-21.2 -0.1,-21.2 z"
         id="path11" />
      <path
         style="fill:#00dffc"
         inkscape:connector-curvature="0"
         class="st2"
         d="m 97.7,40.8 -13.1,0 c -7.3,0 -13.2,5.8 -13.1,13.1 0,3.6 0.1,13.1 0.1,13.1 l 15,-0.1 C 93,66 97.9,60.5 97.9,53.9 97.8,50.7 97.8,40.8 97.7,40.8 Z"
         id="path13" />
      <path
         style="fill:#00b4cc"
         inkscape:connector-curvature="0"
         class="st3"
         d="m 71.4,71.4 0,7.9 c 0,4.4 3.5,7.9 7.9,7.9 l 7.9,0 0,-9 c -0.5,-3.9 -3.8,-6.8 -7.8,-6.8 l -8,0 z"
         id="path15" />
    </g>
  </g>
</svg>
