<svg xmlns="http://www.w3.org/2000/svg" id="Layer_1" viewBox="0 0 1200 221.16381" width="1200" height="221.164"><style id="style3">.st0{fill:#005f6b}.st1{fill:#008c9e}.st2{fill:#00dffc}.st3{fill:#00b4cc}</style><g id="g5" transform="translate(.025 107.464)"><g id="g3361" transform="translate(.024 -107.464) scale(1.94515)"><g id="g7"><path id="path9" d="M.1 0c2.7 0 24.5.1 33.1.1 18.3 0 33.1 14.6 33 32.9 0 9.1-.1 33-.1 33l-37.7-.1C12.3 63.6 0 49.9 0 33.1 0 25-.1 0 .1 0z" class="st0" fill="#005f6b"/><path id="path11" d="M67.1 71.4c-1.8 0-15.7 0-21.2.1-11.7 0-21.2 9.4-21.2 21.1 0 5.8.1 21.1.1 21.1l24.2-.1c10.3-1.4 18.2-10.2 18.2-21 0-5.2.1-21.2-.1-21.2z" class="st1" fill="#008c9e"/><path id="path13" d="M97.7 40.8H84.6c-7.3 0-13.2 5.8-13.1 13.1 0 3.6.1 13.1.1 13.1l15-.1c6.4-.9 11.3-6.4 11.3-13-.1-3.2-.1-13.1-.2-13.1z" class="st2" fill="#00dffc"/><path id="path15" d="M71.4 71.4v7.9c0 4.4 3.5 7.9 7.9 7.9h7.9v-9c-.5-3.9-3.8-6.8-7.8-6.8h-8z" class="st3" fill="#00b4cc"/></g><g id="g17" fill="#373a3c"><path id="path19" d="M130.3 52.8c0-2 1-3.1 3-3.1h14.2c5.2 0 7.8.4 10 1.4 5.3 2.2 8.8 7.2 8.8 14.3 0 6.2-3.3 12.1-8.7 14.3v.1s.7.8 1.7 2.7l8.6 15.8c1.3 2.1.3 3.7-2.1 3.7h-4c-1.7 0-2.8-.7-3.6-2.1L149 82.5h-9.2V99c0 2.1-1 3.1-3 3.1h-3.4c-2 0-3-1-3-3.1V52.8zm18 21.5c5.1 0 8.3-3.2 8.3-8.4 0-3.3-1.3-6-4.1-7.2-1.3-.6-2.9-.9-5.7-.9h-7v16.4h8.5z"/><path id="path21" d="M188.1 52.2c.6-1.7 1.7-2.5 3.5-2.5h4.7c1.8 0 3 .8 3.5 2.5l16.4 46.4c.7 2.1-.2 3.5-2.5 3.5h-3.4c-1.8 0-3-.8-3.5-2.5l-3.7-10.9h-18.4l-3.6 10.9c-.5 1.8-1.7 2.6-3.5 2.6h-3.4c-2.3 0-3.3-1.4-2.5-3.5l16.4-46.5zm12.6 28.7l-4.7-14c-.9-3-2.1-8.1-2.1-8.1h-.1s-1.2 5.2-2.1 8.1l-4.7 14h13.7z"/><path id="path23" d="M223.4 52.8c0-2 1-3.1 3-3.1h3.4c2 0 3 1.1 3 3.1V99c0 2.1-1 3.1-3 3.1h-3.4c-2 0-3-1-3-3.1V52.8z"/><path id="path25" d="M245 52.8c0-2 1-3.1 3-3.1h4c1.8 0 2.9.6 3.7 2.1L274.3 80c2 3.1 4.4 8.1 4.4 8.1h.1s-.5-5-.5-8.1V52.8c0-2 1.1-3.1 3.1-3.1h3.3c2 0 3.1 1.1 3.1 3.1V99c0 2.1-1.1 3.1-3.1 3.1h-4c-1.6 0-2.8-.6-3.6-2.1l-18.7-28.2c-1.9-3.1-4.4-8.1-4.4-8.1h-.1s.5 5 .5 8.1V99c0 2.1-1 3.1-3 3.1H248c-2 0-3-1-3-3.1V52.8z"/><path id="path27" d="M323.7 49.3c9.2 0 15.1 3.7 17.4 5.5.9.7.9 1.6.3 2.6l-.7 1c-.7.9-1.6 1-2.5.3-2.2-1.6-7.2-4.6-14.4-4.6-12.6 0-20.9 9.5-20.9 21.7 0 12.3 8.3 22.5 21.1 22.5 7.8 0 13.2-3.8 15.4-5.6.9-.7 1.8-.7 2.5.2l.7.8c.7.9.7 1.8-.1 2.6-2.4 2.1-8.9 6.8-18.6 6.8-15.8 0-26.3-12-26.3-27.2 0-15.1 10.8-26.6 26.1-26.6z"/><path id="path29" d="M365.6 51.7c.3-1 1-1.5 2-1.5h2.4c1 0 1.7.4 2 1.5l17.9 48.3c.4 1.3-.1 2.1-1.5 2.1h-1.6c-1 0-1.8-.4-2.1-1.5l-5.5-15.1h-20.8l-5.5 15.1c-.3 1-1 1.5-2.1 1.5h-1.6c-1.4 0-1.9-.8-1.6-2.1l18-48.3zm12.1 29.5l-6.9-18.8c-.8-2.4-1.9-6.8-1.9-6.8h-.1s-1.2 4.4-2 6.8l-6.9 18.8h17.8z"/><path id="path31" d="M405.6 54.8h-16.8c-1.2 0-1.8-.7-1.8-1.8v-1c0-1.2.7-1.8 1.8-1.8h38.7c1.2 0 1.8.7 1.8 1.8v.9c0 1.2-.7 1.8-1.8 1.8h-16.8v45.5c0 1.2-.6 1.8-1.8 1.8h-1.5c-1.2 0-1.8-.7-1.8-1.8V54.8z"/><path id="path33" d="M456.5 49.3c9.2 0 15.1 3.7 17.4 5.5.9.7.9 1.6.3 2.6l-.7 1c-.7.9-1.6 1-2.5.3-2.2-1.6-7.2-4.6-14.4-4.6-12.6 0-20.9 9.5-20.9 21.7 0 12.3 8.3 22.5 21.1 22.5 7.8 0 13.2-3.8 15.4-5.6.9-.7 1.8-.7 2.5.2l.7.8c.7.9.7 1.8-.1 2.6-2.4 2.1-8.9 6.8-18.6 6.8-15.8 0-26.3-12-26.3-27.2 0-15.1 10.8-26.6 26.1-26.6z"/><path id="path35" d="M486.3 52c0-1.2.6-1.8 1.8-1.8h1.6c1.1 0 1.8.7 1.8 1.8v21.8h30.2V52c0-1.2.6-1.8 1.8-1.8h1.5c1.2 0 1.8.7 1.8 1.8v48.3c0 1.2-.7 1.8-1.8 1.8h-1.5c-1.2 0-1.8-.7-1.8-1.8V78.4h-30.2v21.9c0 1.2-.7 1.8-1.8 1.8h-1.6c-1.2 0-1.8-.7-1.8-1.8V52z"/><path id="path37" d="M541.1 52c0-1.2.6-1.8 1.8-1.8h25.6c1.2 0 1.8.7 1.8 1.8v.9c0 1.2-.7 1.8-1.8 1.8h-22.3v18.9h17.9c1.2 0 1.8.6 1.8 1.8v1c0 1.2-.7 1.8-1.8 1.8h-17.9v19.3h23.6c1.2 0 1.8.7 1.8 1.8v.9c0 1.2-.7 1.8-1.8 1.8h-27c-1.2 0-1.8-.7-1.8-1.8V52z"/><path id="path39" d="M582 52c0-1.2.6-1.8 1.8-1.8h14c4.9 0 7.4.5 9.5 1.5 4.7 2.2 7.7 6.7 7.7 13 0 7-4 12.7-9.8 14.3v.1s.5.7 1.3 2.1l10.1 18.8c.7 1.3.1 2.1-1.3 2.1h-1.9c-1 0-1.7-.4-2.1-1.3l-11.1-20.6h-13.1v20c0 1.2-.7 1.8-1.8 1.8h-1.6c-1.2 0-1.8-.7-1.8-1.8V52zm17.4 23.7c6.3 0 10.3-4.4 10.3-10.9 0-4.1-2-7.5-5.5-9.1-1.5-.7-3-1-6.8-1h-10.3v20.9h12.3z"/></g><g id="g41" fill="#373a3c"><path id="path43" d="M130.3 11.3c0-.4.2-.6.6-.6h11.8c.4 0 .6.2.6.6v.2c0 .4-.2.6-.6.6h-10.8v10.8h9.3c.4 0 .6.2.6.6v.2c0 .4-.2.6-.6.6h-9.3v11.5c0 .4-.2.6-.6.6h-.3c-.4 0-.6-.2-.6-.6V11.3z"/><path id="path45" d="M148.4 11.3c0-.4.2-.6.6-.6h13c.4 0 .6.2.6.6v.2c0 .4-.2.6-.6.6h-12v10.6h9.7c.4 0 .6.2.6.6v.2c0 .4-.2.6-.6.6H150V35h12.6c.4 0 .6.2.6.6v.2c0 .4-.2.6-.6.6H149c-.4 0-.6-.2-.6-.6V11.3z"/><path id="path47" d="M168.8 11.3c0-.4.2-.6.6-.6h12.9c.4 0 .6.2.6.6v.2c0 .4-.2.6-.6.6h-11.9v10.6h9.7c.4 0 .6.2.6.6v.2c0 .4-.2.6-.6.6h-9.7V35H183c.4 0 .6.2.6.6v.2c0 .4-.2.6-.6.6h-13.6c-.4 0-.6-.2-.6-.6V11.3z"/><path id="path49" d="M189.2 11.3c0-.4.2-.6.6-.6h7.5c7.7 0 12.9 4.7 12.9 12.9s-5.2 12.9-12.9 12.9h-7.5c-.4 0-.6-.2-.6-.6V11.3zM197 35c6.9 0 11.5-4 11.5-11.5 0-7.4-4.6-11.5-11.5-11.5h-6.3v23h6.3z"/><path id="path51" d="M216.2 11.3c0-.4.2-.6.6-.6h.3c.4 0 .6.2.6.6v11.5h16.4V11.3c0-.4.2-.6.6-.6h.3c.4 0 .6.2.6.6v24.6c0 .4-.2.6-.6.6h-.3c-.4 0-.6-.2-.6-.6V24.3h-16.4v11.6c0 .4-.2.6-.6.6h-.3c-.4 0-.6-.2-.6-.6V11.3z"/><path id="path53" d="M243.5 11.3c0-.4.2-.6.6-.6H257c.4 0 .6.2.6.6v.2c0 .4-.2.6-.6.6h-11.9v10.6h9.7c.4 0 .6.2.6.6v.2c0 .4-.2.6-.6.6h-9.7V35h12.6c.4 0 .6.2.6.6v.2c0 .4-.2.6-.6.6h-13.6c-.4 0-.6-.2-.6-.6V11.3z"/><path id="path55" d="M263.9 11.3c0-.4.2-.6.6-.6h.4c.3 0 .6.1.8.4L280.1 31c.8 1.2 2.1 3.3 2.1 3.3h.1s-.2-2-.2-3.3V11.3c0-.4.2-.6.6-.6h.3c.4 0 .6.2.6.6v24.6c0 .4-.2.6-.6.6h-.4c-.3 0-.6-.1-.8-.4l-14.4-19.9c-.9-1.2-2.1-3.3-2.1-3.3h-.1s.2 2 .2 3.3v19.7c0 .4-.2.6-.6.6h-.3c-.4 0-.6-.2-.6-.6V11.3z"/><path id="path57" d="M291.5 11.3c0-.4.2-.6.6-.6h6.9c2.4 0 3.6.3 4.7.8 2.1 1.1 3.6 3.3 3.6 6.2 0 3.7-2.1 6.5-5.2 7.1v.1s.3.3.6.9l5.4 10c.2.4 0 .7-.4.7h-.5c-.4 0-.6-.1-.7-.4l-5.9-11H293v10.8c0 .4-.2.6-.6.6h-.3c-.4 0-.6-.2-.6-.6V11.3zm8.6 12.3c3.4 0 5.5-2.4 5.5-5.9 0-2.3-1.1-4.1-3-5-.7-.3-1.6-.5-3.6-.5h-6v11.5h7.1z"/><path id="path59" d="M318.8 25.3l-8.4-13.9c-.3-.4-.1-.7.4-.7h.4c.3 0 .6.1.7.4l5.9 9.8c.7 1.3 1.6 2.9 1.6 2.9h.1s.8-1.7 1.6-2.9l5.9-9.8c.2-.3.4-.4.7-.4h.4c.5 0 .7.3.4.7l-8.3 13.9v10.6c0 .4-.2.6-.6.6h-.3c-.4 0-.6-.2-.6-.6V25.3z"/></g></g></g></svg>